# xmcd
#
# Track frame offsets:
#	150
#	34924
#	100794
#	167889
#	255947
#
# Disc length: 4241 seconds
#
# Revision: 0
# Processed by: cddbd v1.5.2PL0 Copyright (c) Steve Scherf et al.
# Submitted via: audiograbber 1.83.01
#
DISCID=35108f05
DTITLE=Veer Manpreet Singh  - Malaysia 2007
DYEAR=2007
DGENRE=Gurbani
TTITLE0=Tuhi Tuhi
TTITLE1=Doe Doe Lochan
TTITLE2=Mai Neer Vahai
TTITLE3=Tera Naam
TTITLE4=Milan Ki Baria
EXTD=SIKHROOTS.COM
EXTT0=
EXTT1=
EXTT2=
EXTT3=
EXTT4=
PLAYORDER=
